<svg xmlns="http://www.w3.org/2000/svg" xmlns:xlink="http://www.w3.org/1999/xlink" contentStyleType="text/css" data-diagram-type="CLASS" height="572px" preserveAspectRatio="none" style="width:1180px;height:572px;background:#FFFFFF;" version="1.1" viewBox="0 0 1180 572" width="1180px" zoomAndPan="magnify"><?plantuml 1.2026.3beta4?><defs><filter height="300%" id="f182n4jgtqcfqf" width="300%" x="-1" y="-1"><feGaussianBlur result="blurOut" stdDeviation="2"/><feColorMatrix in="blurOut" result="blurOut2" type="matrix" values="0 0 0 0 0 0 0 0 0 0 0 0 0 0 0 0 0 0 .4 0"/><feOffset dx="4" dy="4" in="blurOut2" result="blurOut3"/><feBlend in="SourceGraphic" in2="blurOut3" mode="normal"/></filter></defs><g><g class="legend" data-source-line="1"><rect fill="#DDDDDD" height="30.9531" rx="7.5" ry="7.5" style="stroke:#000000;stroke-width:1;" width="285.0098" x="12" y="12"/><text fill="#000000" font-family="sans-serif" font-size="18" font-weight="700" lengthAdjust="spacing" textLength="275.0098" x="17" y="33.708">TRSC - Architekurübersicht</text></g><!--cluster Management/Orchestrierung--><g class="cluster" data-qualified-name="Management.Orchestrierung" data-source-line="16" id="ent0002"><rect fill="none" filter="url(#f182n4jgtqcfqf)" height="115.29" rx="2.5" ry="2.5" style="stroke:#000000;stroke-width:1.5;" width="243" x="498" y="62.9531"/><text fill="#000000" font-family="sans-serif" font-size="14" font-weight="700" lengthAdjust="spacing" textLength="227.8145" x="505.5928" y="77.9482">Management/Orchestrierung</text></g><!--cluster Konfiguration--><g class="cluster" data-qualified-name="Konfiguration" data-source-line="22" id="ent0004"><rect fill="none" filter="url(#f182n4jgtqcfqf)" height="99" rx="2.5" ry="2.5" style="stroke:#000000;stroke-width:1.5;" width="492" x="554" y="437.1331"/><text fill="#000000" font-family="sans-serif" font-size="14" font-weight="700" lengthAdjust="spacing" textLength="108.7393" x="745.6304" y="452.1282">Konfiguration</text></g><!--cluster Services--><g class="cluster" data-qualified-name="Services" data-source-line="28" id="ent0008"><rect fill="none" filter="url(#f182n4jgtqcfqf)" height="131.59" rx="2.5" ry="2.5" style="stroke:#000000;stroke-width:1.5;" width="697" x="374" y="250.3931"/><text fill="#000000" font-family="sans-serif" font-size="14" font-weight="700" lengthAdjust="spacing" textLength="66.5342" x="689.2329" y="265.3882">Services</text></g><!--cluster Hilfsmodule / Infrastruktur--><g class="cluster" data-qualified-name="Hilfsmodule . Infrastruktur" data-source-line="47" id="ent0013"><rect fill="none" filter="url(#f182n4jgtqcfqf)" height="310.19" rx="2.5" ry="2.5" style="stroke:#000000;stroke-width:1.5;" width="343" x="7" y="242.2431"/><text fill="#000000" font-family="sans-serif" font-size="14" font-weight="700" lengthAdjust="spacing" textLength="211.4766" x="72.7617" y="257.2382">Hilfsmodule / Infrastruktur</text></g><!--class CLIApp--><g class="entity" data-qualified-name="Management.Orchestrierung.CLIApp" data-source-line="17" id="ent0003"><rect fill="#FFFFFF" filter="url(#f182n4jgtqcfqf)" height="64.2969" rx="2.5" ry="2.5" style="stroke:#444444;stroke-width:0.5;" width="81.0547" x="578.47" y="97.9531"/><ellipse cx="593.47" cy="113.9531" fill="#FFFF00" rx="11" ry="11" style="stroke:#181818;stroke-width:1;"/><path d="M596.4388,119.5938 Q595.8606,119.8906 595.22,120.0313 Q594.5794,120.1875 593.8763,120.1875 Q591.3763,120.1875 590.0481,118.5469 Q588.7356,116.8906 588.7356,113.7656 Q588.7356,110.6406 590.0481,108.9844 Q591.3763,107.3281 593.8763,107.3281 Q594.5794,107.3281 595.22,107.4844 Q595.8763,107.6406 596.4388,107.9375 L596.4388,110.6563 Q595.8138,110.0781 595.22,109.8125 Q594.6263,109.5313 594.0013,109.5313 Q592.6575,109.5313 591.97,110.6094 Q591.2825,111.6719 591.2825,113.7656 Q591.2825,115.8594 591.97,116.9375 Q592.6575,118 594.0013,118 Q594.6263,118 595.22,117.7344 Q595.8138,117.4531 596.4388,116.875 L596.4388,119.5938 Z " fill="#000000"/><text fill="#000000" font-family="sans-serif" font-size="14" lengthAdjust="spacing" textLength="49.0547" x="607.47" y="118.7998">CLIApp</text><line style="stroke:#444444;stroke-width:0.5;" x1="579.47" x2="658.5247" y1="129.9531" y2="129.9531"/><line style="stroke:#444444;stroke-width:0.5;" x1="579.47" x2="658.5247" y1="137.9531" y2="137.9531"/><text fill="#000000" font-family="sans-serif" font-size="14" lengthAdjust="spacing" textLength="57.6338" x="584.47" y="154.9482">+main()</text></g><!--class AppConfig--><g class="entity" data-qualified-name="Konfiguration.AppConfig" data-source-line="23" id="ent0005"><rect fill="#FFFFFF" filter="url(#f182n4jgtqcfqf)" height="48" rx="2.5" ry="2.5" style="stroke:#444444;stroke-width:0.5;" width="104.2695" x="925.87" y="472.1331"/><ellipse cx="940.87" cy="488.1331" fill="#ADD1B2" rx="11" ry="11" style="stroke:#181818;stroke-width:1;"/><path d="M943.8388,493.7738 Q943.2606,494.0706 942.62,494.2113 Q941.9794,494.3675 941.2763,494.3675 Q938.7763,494.3675 937.4481,492.7269 Q936.1356,491.0706 936.1356,487.9456 Q936.1356,484.8206 937.4481,483.1644 Q938.7763,481.5081 941.2763,481.5081 Q941.9794,481.5081 942.62,481.6644 Q943.2763,481.8206 943.8388,482.1175 L943.8388,484.8363 Q943.2138,484.2581 942.62,483.9925 Q942.0263,483.7113 941.4013,483.7113 Q940.0575,483.7113 939.37,484.7894 Q938.6825,485.8519 938.6825,487.9456 Q938.6825,490.0394 939.37,491.1175 Q940.0575,492.18 941.4013,492.18 Q942.0263,492.18 942.62,491.9144 Q943.2138,491.6331 943.8388,491.055 L943.8388,493.7738 Z " fill="#000000"/><text fill="#000000" font-family="sans-serif" font-size="14" lengthAdjust="spacing" textLength="72.2695" x="954.87" y="492.9798">AppConfig</text><line style="stroke:#444444;stroke-width:0.5;" x1="926.87" x2="1029.1395" y1="504.1331" y2="504.1331"/><line style="stroke:#444444;stroke-width:0.5;" x1="926.87" x2="1029.1395" y1="512.1331" y2="512.1331"/></g><!--class RecordingSettings--><g class="entity" data-qualified-name="Konfiguration.RecordingSettings" data-source-line="24" id="ent0006"><rect fill="#FFFFFF" filter="url(#f182n4jgtqcfqf)" height="48" rx="2.5" ry="2.5" style="stroke:#444444;stroke-width:0.5;" width="160.3174" x="730.84" y="472.1331"/><ellipse cx="745.84" cy="488.1331" fill="#ADD1B2" rx="11" ry="11" style="stroke:#181818;stroke-width:1;"/><path d="M748.8088,493.7738 Q748.2306,494.0706 747.59,494.2113 Q746.9494,494.3675 746.2463,494.3675 Q743.7463,494.3675 742.4181,492.7269 Q741.1056,491.0706 741.1056,487.9456 Q741.1056,484.8206 742.4181,483.1644 Q743.7463,481.5081 746.2463,481.5081 Q746.9494,481.5081 747.59,481.6644 Q748.2463,481.8206 748.8088,482.1175 L748.8088,484.8363 Q748.1838,484.2581 747.59,483.9925 Q746.9963,483.7113 746.3713,483.7113 Q745.0275,483.7113 744.34,484.7894 Q743.6525,485.8519 743.6525,487.9456 Q743.6525,490.0394 744.34,491.1175 Q745.0275,492.18 746.3713,492.18 Q746.9963,492.18 747.59,491.9144 Q748.1838,491.6331 748.8088,491.055 L748.8088,493.7738 Z " fill="#000000"/><text fill="#000000" font-family="sans-serif" font-size="14" lengthAdjust="spacing" textLength="128.3174" x="759.84" y="492.9798">RecordingSettings</text><line style="stroke:#444444;stroke-width:0.5;" x1="731.84" x2="890.1574" y1="504.1331" y2="504.1331"/><line style="stroke:#444444;stroke-width:0.5;" x1="731.84" x2="890.1574" y1="512.1331" y2="512.1331"/></g><!--class SmtpSettings--><g class="entity" data-qualified-name="Konfiguration.SmtpSettings" data-source-line="25" id="ent0007"><rect fill="#FFFFFF" filter="url(#f182n4jgtqcfqf)" height="48" rx="2.5" ry="2.5" style="stroke:#444444;stroke-width:0.5;" width="126.3223" x="569.84" y="472.1331"/><ellipse cx="584.84" cy="488.1331" fill="#ADD1B2" rx="11" ry="11" style="stroke:#181818;stroke-width:1;"/><path d="M587.8088,493.7738 Q587.2306,494.0706 586.59,494.2113 Q585.9494,494.3675 585.2463,494.3675 Q582.7463,494.3675 581.4181,492.7269 Q580.1056,491.0706 580.1056,487.9456 Q580.1056,484.8206 581.4181,483.1644 Q582.7463,481.5081 585.2463,481.5081 Q585.9494,481.5081 586.59,481.6644 Q587.2463,481.8206 587.8088,482.1175 L587.8088,484.8363 Q587.1838,484.2581 586.59,483.9925 Q585.9963,483.7113 585.3713,483.7113 Q584.0275,483.7113 583.34,484.7894 Q582.6525,485.8519 582.6525,487.9456 Q582.6525,490.0394 583.34,491.1175 Q584.0275,492.18 585.3713,492.18 Q585.9963,492.18 586.59,491.9144 Q587.1838,491.6331 587.8088,491.055 L587.8088,493.7738 Z " fill="#000000"/><text fill="#000000" font-family="sans-serif" font-size="14" lengthAdjust="spacing" textLength="94.3223" x="598.84" y="492.9798">SmtpSettings</text><line style="stroke:#444444;stroke-width:0.5;" x1="570.84" x2="695.1623" y1="504.1331" y2="504.1331"/><line style="stroke:#444444;stroke-width:0.5;" x1="570.84" x2="695.1623" y1="512.1331" y2="512.1331"/></g><!--class Recorder--><g class="entity" data-qualified-name="Services.Recorder" data-source-line="29" id="ent0009"><rect fill="#FFFFFF" filter="url(#f182n4jgtqcfqf)" height="64.2969" rx="2.5" ry="2.5" style="stroke:#444444;stroke-width:0.5;" width="162.2881" x="723.86" y="293.5431"/><ellipse cx="768.9464" cy="309.5431" fill="#FF7700" rx="11" ry="11" style="stroke:#181818;stroke-width:1;"/><path d="M768.4308,310.1056 Q766.5714,309.4025 765.9152,308.6369 Q765.2746,307.8556 765.2746,306.5431 Q765.2746,304.8556 766.3527,303.8869 Q767.4308,302.9181 769.3058,302.9181 Q770.1652,302.9181 771.0089,303.1213 Q771.8683,303.3088 772.7121,303.6994 L772.7121,306.09 Q771.9308,305.5275 771.1027,305.2463 Q770.2902,304.9494 769.4933,304.9494 Q768.6183,304.9494 768.1339,305.3088 Q767.6652,305.6681 767.6652,306.3244 Q767.6652,306.84 768.0089,307.1838 Q768.3527,307.5119 769.4464,307.9181 L770.5089,308.3244 Q771.9933,308.8713 772.6964,309.7775 Q773.4152,310.6838 773.4152,312.0588 Q773.4152,313.9338 772.3058,314.8556 Q771.1964,315.7775 768.9464,315.7775 Q768.0246,315.7775 767.1027,315.5588 Q766.1808,315.34 765.3214,314.9181 L765.3214,312.3869 Q766.2902,313.0744 767.2121,313.4181 Q768.1339,313.7619 769.0246,313.7619 Q769.9308,313.7619 770.4308,313.3556 Q770.9308,312.9338 770.9308,312.1994 Q770.9308,311.6369 770.5871,311.2306 Q770.2589,310.8088 769.6339,310.5588 L768.4308,310.1056 Z " fill="#000000"/><text fill="#000000" font-family="sans-serif" font-size="14" lengthAdjust="spacing" textLength="63.6152" x="789.4464" y="314.3898">Recorder</text><line style="stroke:#444444;stroke-width:0.5;" x1="724.86" x2="885.1481" y1="325.5431" y2="325.5431"/><line style="stroke:#444444;stroke-width:0.5;" x1="724.86" x2="885.1481" y1="333.5431" y2="333.5431"/><text fill="#000000" font-family="sans-serif" font-size="14" lengthAdjust="spacing" textLength="150.2881" x="729.86" y="350.5382">+record_until_enter()</text></g><!--class WhisperASR--><g class="entity" data-qualified-name="Services.WhisperASR" data-source-line="33" id="ent0010"><rect fill="#FFFFFF" filter="url(#f182n4jgtqcfqf)" height="80.5938" rx="2.5" ry="2.5" style="stroke:#444444;stroke-width:0.5;" width="133.8096" x="921.1" y="285.3931"/><ellipse cx="943.5083" cy="301.3931" fill="#FF7700" rx="11" ry="11" style="stroke:#181818;stroke-width:1;"/><path d="M942.9927,301.9556 Q941.1333,301.2525 940.4771,300.4869 Q939.8364,299.7056 939.8364,298.3931 Q939.8364,296.7056 940.9146,295.7369 Q941.9927,294.7681 943.8677,294.7681 Q944.7271,294.7681 945.5708,294.9713 Q946.4302,295.1588 947.2739,295.5494 L947.2739,297.94 Q946.4927,297.3775 945.6646,297.0963 Q944.8521,296.7994 944.0552,296.7994 Q943.1802,296.7994 942.6958,297.1588 Q942.2271,297.5181 942.2271,298.1744 Q942.2271,298.69 942.5708,299.0338 Q942.9146,299.3619 944.0083,299.7681 L945.0708,300.1744 Q946.5552,300.7213 947.2583,301.6275 Q947.9771,302.5338 947.9771,303.9088 Q947.9771,305.7838 946.8677,306.7056 Q945.7583,307.6275 943.5083,307.6275 Q942.5864,307.6275 941.6646,307.4088 Q940.7427,307.19 939.8833,306.7681 L939.8833,304.2369 Q940.8521,304.9244 941.7739,305.2681 Q942.6958,305.6119 943.5864,305.6119 Q944.4927,305.6119 944.9927,305.2056 Q945.4927,304.7838 945.4927,304.0494 Q945.4927,303.4869 945.1489,303.0806 Q944.8208,302.6588 944.1958,302.4088 L942.9927,301.9556 Z " fill="#000000"/><text fill="#000000" font-family="sans-serif" font-size="14" lengthAdjust="spacing" textLength="85.3467" x="959.1546" y="306.2398">WhisperASR</text><line style="stroke:#444444;stroke-width:0.5;" x1="922.1" x2="1053.9096" y1="317.3931" y2="317.3931"/><line style="stroke:#444444;stroke-width:0.5;" x1="922.1" x2="1053.9096" y1="325.3931" y2="325.3931"/><text fill="#000000" font-family="sans-serif" font-size="14" lengthAdjust="spacing" textLength="96.2363" x="927.1" y="342.3882">+get_model()</text><text fill="#000000" font-family="sans-serif" font-size="14" lengthAdjust="spacing" textLength="121.8096" x="927.1" y="358.6851">+transcribe_file()</text></g><!--class OutputWriter--><g class="entity" data-qualified-name="Services.OutputWriter" data-source-line="38" id="ent0011"><rect fill="#FFFFFF" filter="url(#f182n4jgtqcfqf)" height="64.2969" rx="2.5" ry="2.5" style="stroke:#444444;stroke-width:0.5;" width="123.9775" x="390.01" y="293.5431"/><ellipse cx="405.01" cy="309.5431" fill="#FF7700" rx="11" ry="11" style="stroke:#181818;stroke-width:1;"/><path d="M404.4944,310.1056 Q402.635,309.4025 401.9788,308.6369 Q401.3381,307.8556 401.3381,306.5431 Q401.3381,304.8556 402.4163,303.8869 Q403.4944,302.9181 405.3694,302.9181 Q406.2288,302.9181 407.0725,303.1213 Q407.9319,303.3088 408.7756,303.6994 L408.7756,306.09 Q407.9944,305.5275 407.1663,305.2463 Q406.3538,304.9494 405.5569,304.9494 Q404.6819,304.9494 404.1975,305.3088 Q403.7288,305.6681 403.7288,306.3244 Q403.7288,306.84 404.0725,307.1838 Q404.4163,307.5119 405.51,307.9181 L406.5725,308.3244 Q408.0569,308.8713 408.76,309.7775 Q409.4788,310.6838 409.4788,312.0588 Q409.4788,313.9338 408.3694,314.8556 Q407.26,315.7775 405.01,315.7775 Q404.0881,315.7775 403.1663,315.5588 Q402.2444,315.34 401.385,314.9181 L401.385,312.3869 Q402.3538,313.0744 403.2756,313.4181 Q404.1975,313.7619 405.0881,313.7619 Q405.9944,313.7619 406.4944,313.3556 Q406.9944,312.9338 406.9944,312.1994 Q406.9944,311.6369 406.6506,311.2306 Q406.3225,310.8088 405.6975,310.5588 L404.4944,310.1056 Z " fill="#000000"/><text fill="#000000" font-family="sans-serif" font-size="14" lengthAdjust="spacing" textLength="91.9775" x="419.01" y="314.3898">OutputWriter</text><line style="stroke:#444444;stroke-width:0.5;" x1="391.01" x2="512.9875" y1="325.5431" y2="325.5431"/><line style="stroke:#444444;stroke-width:0.5;" x1="391.01" x2="512.9875" y1="333.5431" y2="333.5431"/><text fill="#000000" font-family="sans-serif" font-size="14" lengthAdjust="spacing" textLength="84.1162" x="396.01" y="350.5382">+write_txt()</text></g><!--class Mailer--><g class="entity" data-qualified-name="Services.Mailer" data-source-line="42" id="ent0012"><rect fill="#FFFFFF" filter="url(#f182n4jgtqcfqf)" height="64.2969" rx="2.5" ry="2.5" style="stroke:#444444;stroke-width:0.5;" width="140.1943" x="548.9" y="293.5431"/><ellipse cx="593.3438" cy="309.5431" fill="#FF7700" rx="11" ry="11" style="stroke:#181818;stroke-width:1;"/><path d="M592.8282,310.1056 Q590.9688,309.4025 590.3126,308.6369 Q589.672,307.8556 589.672,306.5431 Q589.672,304.8556 590.7501,303.8869 Q591.8282,302.9181 593.7032,302.9181 Q594.5626,302.9181 595.4063,303.1213 Q596.2657,303.3088 597.1095,303.6994 L597.1095,306.09 Q596.3282,305.5275 595.5001,305.2463 Q594.6876,304.9494 593.8907,304.9494 Q593.0157,304.9494 592.5313,305.3088 Q592.0626,305.6681 592.0626,306.3244 Q592.0626,306.84 592.4063,307.1838 Q592.7501,307.5119 593.8438,307.9181 L594.9063,308.3244 Q596.3907,308.8713 597.0938,309.7775 Q597.8126,310.6838 597.8126,312.0588 Q597.8126,313.9338 596.7032,314.8556 Q595.5938,315.7775 593.3438,315.7775 Q592.422,315.7775 591.5001,315.5588 Q590.5782,315.34 589.7188,314.9181 L589.7188,312.3869 Q590.6876,313.0744 591.6095,313.4181 Q592.5313,313.7619 593.422,313.7619 Q594.3282,313.7619 594.8282,313.3556 Q595.3282,312.9338 595.3282,312.1994 Q595.3282,311.6369 594.9845,311.2306 Q594.6563,310.8088 594.0313,310.5588 L592.8282,310.1056 Z " fill="#000000"/><text fill="#000000" font-family="sans-serif" font-size="14" lengthAdjust="spacing" textLength="42.8066" x="613.8438" y="314.3898">Mailer</text><line style="stroke:#444444;stroke-width:0.5;" x1="549.9" x2="688.0943" y1="325.5431" y2="325.5431"/><line style="stroke:#444444;stroke-width:0.5;" x1="549.9" x2="688.0943" y1="333.5431" y2="333.5431"/><text fill="#000000" font-family="sans-serif" font-size="14" lengthAdjust="spacing" textLength="128.1943" x="554.9" y="350.5382">+send_mail_text()</text></g><!--class InputUtils--><g class="entity" data-qualified-name="Hilfsmodule . Infrastruktur.InputUtils" data-source-line="48" id="ent0014"><rect fill="#FFFFFF" filter="url(#f182n4jgtqcfqf)" height="96.8906" rx="2.5" ry="2.5" style="stroke:#444444;stroke-width:0.5;" width="143.2568" x="190.37" y="277.2431"/><ellipse cx="225.2583" cy="293.2431" fill="#B4A7E5" rx="11" ry="11" style="stroke:#181818;stroke-width:1;"/><path d="M221.1802,289.0088 L221.1802,286.8525 L228.5708,286.8525 L228.5708,289.0088 L226.1021,289.0088 L226.1021,297.0869 L228.5708,297.0869 L228.5708,299.2431 L221.1802,299.2431 L221.1802,297.0869 L223.649,297.0869 L223.649,289.0088 L221.1802,289.0088 Z " fill="#000000"/><text fill="#000000" font-family="sans-serif" font-size="14" font-style="italic" lengthAdjust="spacing" textLength="67.0605" x="243.678" y="298.0898">InputUtils</text><line style="stroke:#444444;stroke-width:0.5;" x1="191.37" x2="332.6268" y1="309.2431" y2="309.2431"/><line style="stroke:#444444;stroke-width:0.5;" x1="191.37" x2="332.6268" y1="317.2431" y2="317.2431"/><text fill="#000000" font-family="sans-serif" font-size="14" lengthAdjust="spacing" textLength="98.9707" x="196.37" y="334.2382">+ask_choice()</text><text fill="#000000" font-family="sans-serif" font-size="14" lengthAdjust="spacing" textLength="92.2441" x="196.37" y="350.5351">+ask_email()</text><text fill="#000000" font-family="sans-serif" font-size="14" lengthAdjust="spacing" textLength="131.2568" x="196.37" y="366.832">+ask_audio_path()</text></g><!--class LoggingSetup--><g class="entity" data-qualified-name="Hilfsmodule . Infrastruktur.LoggingSetup" data-source-line="54" id="ent0015"><rect fill="#FFFFFF" filter="url(#f182n4jgtqcfqf)" height="64.2969" rx="2.5" ry="2.5" style="stroke:#444444;stroke-width:0.5;" width="132.6885" x="22.66" y="293.5431"/><ellipse cx="39.5281" cy="309.5431" fill="#D94321" rx="11" ry="11" style="stroke:#181818;stroke-width:1;"/><path d="M44.5437,315.5431 L42.0125,315.5431 L39.6375,311.4494 L37.2781,315.5431 L34.7469,315.5431 L38.3875,309.2463 L34.8562,303.1525 L37.3875,303.1525 L39.6375,307.09 L41.9031,303.1525 L44.4344,303.1525 L40.9187,309.2463 L44.5437,315.5431 Z " fill="#000000"/><text fill="#000000" font-family="sans-serif" font-size="14" lengthAdjust="spacing" textLength="96.5371" x="53.9433" y="314.3898">LoggingSetup</text><line style="stroke:#444444;stroke-width:0.5;" x1="23.66" x2="154.3485" y1="325.5431" y2="325.5431"/><line style="stroke:#444444;stroke-width:0.5;" x1="23.66" x2="154.3485" y1="333.5431" y2="333.5431"/><text fill="#000000" font-family="sans-serif" font-size="14" lengthAdjust="spacing" textLength="120.6885" x="28.66" y="350.5382">+setup_logging()</text></g><!--class Paths--><g class="entity" data-qualified-name="Hilfsmodule . Infrastruktur.Paths" data-source-line="58" id="ent0016"><rect fill="#FFFFFF" filter="url(#f182n4jgtqcfqf)" height="80.5938" rx="2.5" ry="2.5" style="stroke:#444444;stroke-width:0.5;" width="187.3486" x="146.33" y="455.8431"/><ellipse cx="216.4154" cy="471.8431" fill="#F1F1F1" rx="11" ry="11" style="stroke:#181818;stroke-width:1;"/><path d="M216.2123,467.515 L216.2123,471.14 L217.2123,471.14 Q218.4154,471.14 218.8998,470.7338 Q219.3842,470.3275 219.3842,469.3275 Q219.3842,468.3275 218.8998,467.9213 Q218.4154,467.515 217.2123,467.515 L216.2123,467.515 Z M213.7592,465.4525 L217.1186,465.4525 Q219.6811,465.4525 220.8061,466.3744 Q221.9311,467.2806 221.9311,469.3275 Q221.9311,471.3744 220.8061,472.2963 Q219.6811,473.2025 217.1186,473.2025 L216.2123,473.2025 L216.2123,477.8431 L213.7592,477.8431 L213.7592,465.4525 Z " fill="#000000"/><text fill="#000000" font-family="sans-serif" font-size="14" lengthAdjust="spacing" textLength="38.6777" x="236.9154" y="476.6898">Paths</text><line style="stroke:#444444;stroke-width:0.5;" x1="147.33" x2="332.6786" y1="487.8431" y2="487.8431"/><line style="stroke:#444444;stroke-width:0.5;" x1="147.33" x2="332.6786" y1="495.8431" y2="495.8431"/><text fill="#000000" font-family="sans-serif" font-size="14" lengthAdjust="spacing" textLength="173.6465" x="152.33" y="512.8382">+normalize_input_path()</text><text fill="#000000" font-family="sans-serif" font-size="14" lengthAdjust="spacing" textLength="175.3486" x="152.33" y="529.1351">+build_output_txt_path()</text></g><!--link CLIApp to AppConfig--><g class="link" data-entity-1="ent0003" data-entity-2="ent0005" data-link-type="dependency" data-source-line="64" id="lnk17"><path codeLine="64" d="M659.74,133.1031 C763.17,139.2431 1030.61,161.9631 1071,234.2431 C1104.77,294.6731 1095.52,325.2531 1071,389.9831 C1058.4,423.2631 1034.4508,448.8496 1012.3008,468.0796" fill="none" id="CLIApp-to-AppConfig" style="stroke:#444444;stroke-width:1;"/><polygon fill="#444444" points="1007.77,472.0131,1017.1885,469.1334,1011.5456,468.7352,1011.9438,463.0924,1007.77,472.0131" style="stroke:#444444;stroke-width:1;"/><text fill="#000000" font-family="sans-serif" font-size="13" lengthAdjust="spacing" textLength="71.6968" x="1093" y="330.26">load config</text></g><!--link CLIApp to LoggingSetup--><g class="link" data-entity-1="ent0003" data-entity-2="ent0015" data-link-type="dependency" data-source-line="65" id="lnk18"><path codeLine="65" d="M578.27,134.3631 C488.91,142.0231 278.59,162.8931 215,194.2431 C169.67,216.5931 135.1455,257.3093 113.0855,288.2193" fill="none" id="CLIApp-to-LoggingSetup" style="stroke:#444444;stroke-width:1;"/><polygon fill="#444444" points="109.6,293.1031,118.0841,288.1011,112.5046,289.0333,111.5724,283.4538,109.6,293.1031" style="stroke:#444444;stroke-width:1;"/><text fill="#000000" font-family="sans-serif" font-size="13" lengthAdjust="spacing" textLength="88.6641" x="216" y="214.81">setup logging</text></g><!--link CLIApp to InputUtils--><g class="link" data-entity-1="ent0003" data-entity-2="ent0014" data-link-type="dependency" data-source-line="66" id="lnk19"><path codeLine="66" d="M578.36,130.8331 C520.58,132.4031 413.73,142.7731 342,194.2431 C313.51,214.6931 295.6529,243.2893 282.5929,271.4693" fill="none" id="CLIApp-to-InputUtils" style="stroke:#444444;stroke-width:1;"/><polygon fill="#444444" points="280.07,276.9131,287.4836,270.4294,282.1724,272.3766,280.2252,267.0655,280.07,276.9131" style="stroke:#444444;stroke-width:1;"/><text fill="#000000" font-family="sans-serif" font-size="13" lengthAdjust="spacing" textLength="91.4063" x="365.7532" y="207.31">get user input</text><text fill="#000000" font-family="sans-serif" font-size="13" lengthAdjust="spacing" textLength="132.7803" x="347.1323" y="222.4428">&gt;&gt; validated values</text></g><!--link CLIApp to Recorder--><g class="link" data-entity-1="ent0003" data-entity-2="ent0009" data-link-type="dependency" data-source-line="67" id="lnk20"><path codeLine="67" d="M659.76,161.0231 C672.48,171.0531 686.26,182.6531 698,194.2431 C729.68,225.5231 757.8569,260.8554 778.4569,288.2854" fill="none" id="CLIApp-to-Recorder" style="stroke:#444444;stroke-width:1;"/><polygon fill="#444444" points="782.06,293.0831,779.8538,283.4845,779.0574,289.085,773.4569,288.2886,782.06,293.0831" style="stroke:#444444;stroke-width:1;"/><text fill="#000000" font-family="sans-serif" font-size="13" lengthAdjust="spacing" textLength="82.1958" x="735.782" y="207.31">record audio</text><text fill="#000000" font-family="sans-serif" font-size="13" lengthAdjust="spacing" textLength="95.6274" x="731.1323" y="222.4428">&gt;&gt; audio path</text></g><!--link CLIApp to WhisperASR--><g class="link" data-entity-1="ent0003" data-entity-2="ent0010" data-link-type="dependency" data-source-line="68" id="lnk21"><path codeLine="68" d="M659.87,137.3431 C719.15,148.1631 829.99,175.1431 904,234.2431 C922.76,249.2231 937.222,263.8938 952.012,280.7438" fill="none" id="CLIApp-to-WhisperASR" style="stroke:#444444;stroke-width:1;"/><polygon fill="#444444" points="955.97,285.2531,953.0392,275.8505,952.6716,281.4954,947.0267,281.1278,955.97,285.2531" style="stroke:#444444;stroke-width:1;"/><text fill="#000000" font-family="sans-serif" font-size="13" lengthAdjust="spacing" textLength="105.9297" x="892" y="207.31">transcribe audio</text><text fill="#000000" font-family="sans-serif" font-size="13" lengthAdjust="spacing" textLength="88.791" x="902.6355" y="222.4428">&gt;&gt; transcript</text></g><!--link CLIApp to OutputWriter--><g class="link" data-entity-1="ent0003" data-entity-2="ent0011" data-link-type="dependency" data-source-line="69" id="lnk22"><path codeLine="69" d="M578,147.3031 C555.54,157.8831 528.56,173.5831 510,194.2431 C484.32,222.8231 470.195,258.8635 461.685,287.3935" fill="none" id="CLIApp-to-OutputWriter" style="stroke:#444444;stroke-width:1;"/><polygon fill="#444444" points="459.97,293.1431,466.3757,285.662,461.3992,288.3517,458.7094,283.3753,459.97,293.1431" style="stroke:#444444;stroke-width:1;"/><text fill="#000000" font-family="sans-serif" font-size="13" lengthAdjust="spacing" textLength="99.6899" x="511" y="207.31">write transcript</text><text fill="#000000" font-family="sans-serif" font-size="13" lengthAdjust="spacing" textLength="77.4922" x="524.165" y="222.4428">&gt;&gt; txt path</text></g><!--link CLIApp to Mailer--><g class="link" data-entity-1="ent0003" data-entity-2="ent0012" data-link-type="dependency" data-source-line="70" id="lnk23"><path codeLine="70" d="M619,162.6331 C619,198.6331 619,251.1731 619,287.1731" fill="none" id="CLIApp-to-Mailer" style="stroke:#444444;stroke-width:1;"/><polygon fill="#444444" points="619,293.1731,623,284.1731,619,288.1731,615,284.1731,619,293.1731" style="stroke:#444444;stroke-width:1;"/><text fill="#000000" font-family="sans-serif" font-size="13" lengthAdjust="spacing" textLength="63.248" x="623.3738" y="207.31">send mail</text><text fill="#000000" font-family="sans-serif" font-size="13" lengthAdjust="spacing" textLength="65.8633" x="624.1323" y="222.4428">&gt;&gt; status</text></g><!--link Recorder to RecordingSettings--><g class="link" data-entity-1="ent0009" data-entity-2="ent0006" data-link-type="dependency" data-source-line="72" id="lnk24"><path codeLine="72" d="M806.11,357.9831 C807.29,390.9931 808.9074,436.2569 809.9574,465.8769" fill="none" id="Recorder-to-RecordingSettings" style="stroke:#444444;stroke-width:1;stroke-dasharray:7,7;"/><polygon fill="#444444" points="810.17,471.8731,813.8486,462.7371,809.9929,466.8763,805.8537,463.0205,810.17,471.8731" style="stroke:#444444;stroke-width:1;"/><text fill="#000000" font-family="sans-serif" font-size="13" lengthAdjust="spacing" textLength="29.7832" x="809" y="417.2">uses</text></g><!--link Mailer to SmtpSettings--><g class="link" data-entity-1="ent0012" data-entity-2="ent0007" data-link-type="dependency" data-source-line="73" id="lnk25"><path codeLine="73" d="M621.6,357.9831 C624.34,390.9931 628.1134,436.2737 630.5734,465.8937" fill="none" id="Mailer-to-SmtpSettings" style="stroke:#444444;stroke-width:1;stroke-dasharray:7,7;"/><polygon fill="#444444" points="631.07,471.8731,634.3114,462.5729,630.6562,466.8903,626.3388,463.2351,631.07,471.8731" style="stroke:#444444;stroke-width:1;"/><text fill="#000000" font-family="sans-serif" font-size="13" lengthAdjust="spacing" textLength="29.7832" x="627" y="417.2">uses</text></g><!--link InputUtils to Paths--><g class="link" data-entity-1="ent0014" data-entity-2="ent0016" data-link-type="dependency" data-source-line="74" id="lnk26"><path codeLine="74" d="M255.75,374.5131 C252.41,400.0931 249.1287,425.2739 245.9587,449.4939" fill="none" id="InputUtils-to-Paths" style="stroke:#444444;stroke-width:1;stroke-dasharray:7,7;"/><polygon fill="#444444" points="245.18,455.4431,250.3142,447.0383,245.8289,450.4854,242.3818,446.0001,245.18,455.4431" style="stroke:#444444;stroke-width:1;"/><text fill="#000000" font-family="sans-serif" font-size="13" lengthAdjust="spacing" textLength="29.7832" x="253" y="417.2">uses</text></g><!--link OutputWriter to Paths--><g class="link" data-entity-1="ent0011" data-entity-2="ent0016" data-link-type="dependency" data-source-line="75" id="lnk27"><path codeLine="75" d="M412.62,357.9831 C378.02,385.4731 332.1779,421.9009 294.7179,451.6609" fill="none" id="OutputWriter-to-Paths" style="stroke:#444444;stroke-width:1;stroke-dasharray:7,7;"/><polygon fill="#444444" points="290.02,455.3931,299.555,452.9267,293.9349,452.2829,294.5787,446.6628,290.02,455.3931" style="stroke:#444444;stroke-width:1;"/><text fill="#000000" font-family="sans-serif" font-size="13" lengthAdjust="spacing" textLength="29.7832" x="354" y="417.2">uses</text></g><!--link WhisperASR to AppConfig--><g class="link" data-entity-1="ent0010" data-entity-2="ent0005" data-link-type="dependency" data-source-line="76" id="lnk28"><path codeLine="76" d="M985.66,366.1831 C983.7,399.0531 981.344,438.7336 979.734,465.9736" fill="none" id="WhisperASR-to-AppConfig" style="stroke:#444444;stroke-width:1;stroke-dasharray:7,7;"/><polygon fill="#444444" points="979.38,471.9631,983.904,463.2148,979.675,466.9718,975.918,462.7428,979.38,471.9631" style="stroke:#444444;stroke-width:1;"/><text fill="#000000" font-family="sans-serif" font-size="13" lengthAdjust="spacing" textLength="29.7832" x="984" y="417.2">uses</text></g><?plantuml-src VLHDQnin4BtlhnYIIqBpTIW4J6fm3Q6X2IdPb5mAYw8ThuLbQP56iTEIVzPR_bX7slLQJcXyyAxduytJcoThRD3KGBO5ZJE2uWlStvLJE8Q9atD5k0ZkzUyZEg_ad0gkrQcZAFn2cLOuiGG_5xLTATC0kO1PGchX_OJ8gST0U2MjATLlXBEif1Lo8HeiwLaZE9GaJADpZ1fd8cYwnpLDj6hC4Ws1v2zqnTjHyAS0-Cg8ZRF1r5EhhODLF4MCMrUZwsBxdzE7enFdx6et-58KFIlOkn66dt7cwIthWPxFWYwOPY_DwgPEhwycRGiN5t0mFNf6hUtg4CRZL07mQIcKEJZazvSTwE_Mp5GJd21bJGx7MDEK6o9tA9ay2rmY4J_ya2cNr0x17Br4zwGa-XouWq6Nc9P7-vUNv-TdPpbLboggO4ZfAcdS4nym7kRAj-WcvTt_KHgaQcbhrAcP0-I4yP9TWDLCQNoBUHke3VJWU4yVS5l5V4LhUjj-8nZpWqRFTgru2ReY7BfphRufFVDCEB05J-7Ap9pWFOS51TV9fw8ICo6Haypq9wlZD-Z2BoevjwprvhGnWd5U7X2XLhPg1Sstz74jiOtRXslRDDrwGxkbpJygtMMsJQspPANLy8En1XR6kgNGVBag5Hbk1t7kCIXTLpQ97FNBMJ1axzxZu_7MUJ02RKKDilDXLhB3T0I99FGayxfCg16m8I1utb4Yzyl4vJmntLeGrl4jeC-R1wEEe7Ca9FcwnlGAyGnvI-RB4MpzbZTkeYtbZJlc6q5oMLRQjwxftSJUTb43_WED--vgFGaAlYY6GvoSZD_VOEvZHNpHeyIQ_2vlqfcCiQJRUP_ROVukcmaIS_bgO_uV?></g></svg>